<svg id="Capa_1" data-name="Capa 1" xmlns="http://www.w3.org/2000/svg" viewBox="0 0 138.86 218.97"><defs><style>.cls-1{fill:#040202;}</style></defs><path class="cls-1" d="M447,466.88H578.67l2.25.23c3.53,3.18,2.07,7.43,2.11,11.2q.3,27.44.14,54.89C583,571,552.7,601,514.66,601.23c-38.27.23-69.3-29-70.06-66.58-.44-21.85.15-43.73.28-65.61Zm67.16,32.65c-9.12-.07-16.26,7.77-12.08,15.79,5.77,11.07,4.38,22.22,4.8,33.53.17,4.38-.42,9.19,6.35,8.95s5.84-5.24,6-9.47c.33-10.89-.79-21.43,6.3-31.71C530.86,508.81,523.69,499.61,514.14,499.53Z" transform="translate(-444.44 -382.26)"/><path class="cls-1" d="M456,450.65a92.38,92.38,0,0,1,7.65-34.7c9.41-21.21,25.09-33.15,49-33.67s41.37,9.5,51.88,31.09a100.08,100.08,0,0,1,9.72,40.29c.24,5.63-1.9,8.38-7.54,7.72-4.89-.57-11.8,2.85-12.39-6.56-.68-10.73-2.4-21.33-6.58-31.38-5.43-13-14.17-22.27-28.93-23.43-15.3-1.21-27.08,5.44-35.14,18.27A73.42,73.42,0,0,0,473,450.88c-.62,6.54-1.95,11.33-10.53,10.73C452.77,460.92,456.24,454.49,456,450.65Z" transform="translate(-444.44 -382.26)"/></svg>