<svg id="Capa_1" data-name="Capa 1" xmlns="http://www.w3.org/2000/svg" viewBox="0 0 2100.35 1443.25"><defs><style>.cls-1{fill:#1d1d1b;}</style></defs><text x="1482.3" y="804.7"/><path class="cls-1" d="M539.07,638.55H440.94a79.07,79.07,0,0,1-79-79V473.09a79.08,79.08,0,0,1,79-79h98.13a79.08,79.08,0,0,1,79,79v86.47A79.07,79.07,0,0,1,539.07,638.55ZM440.94,411.66a61.5,61.5,0,0,0-61.44,61.43v86.47A61.51,61.51,0,0,0,440.94,621h98.13a61.51,61.51,0,0,0,61.43-61.44V473.09a61.5,61.5,0,0,0-61.43-61.43Z" transform="translate(1482.3 804.7)"/><path class="cls-1" d="M490,586.64a70.31,70.31,0,1,1,70.31-70.31A70.39,70.39,0,0,1,490,586.64Zm0-123.07a52.76,52.76,0,1,0,52.76,52.76A52.82,52.82,0,0,0,490,463.57Z" transform="translate(1482.3 804.7)"/><path class="cls-1" d="M573.82,448.18a14.59,14.59,0,1,1-14.58-14.59A14.59,14.59,0,0,1,573.82,448.18Z" transform="translate(1482.3 804.7)"/></svg>