<svg id="Capa_1" data-name="Capa 1" xmlns="http://www.w3.org/2000/svg" viewBox="0 0 2266.29 1598.69"><defs><style>.cls-1{fill:#1d1d1b;}</style></defs><text x="1482.3" y="804.7"/><path class="cls-1" d="M490,794a292.64,292.64,0,0,1-146.63-39.46L228.82,794l23.54-121.3A290.57,290.57,0,0,1,196,500c0-162.11,131.88-294,294-294S784,337.89,784,500,652.12,794,490,794ZM348.65,706.44,357.5,712A249.22,249.22,0,0,0,490,750.26C628,750.26,740.25,638,740.25,500S628,249.75,490,249.75,239.75,362,239.75,500a247.63,247.63,0,0,0,53.16,153.82l6.13,7.86L286.18,728Z" transform="translate(1482.3 804.7)"/><path class="cls-1" d="M341.58,387.05s17.25-30.16,31.31-31.88,32.17-1.73,37.05,7.46,26.71,62.61,26.71,62.61a21.05,21.05,0,0,1-2,18.1c-5.74,8.9-18.65,21.81-18.65,21.81s-7.19,9.2,0,19,18.31,27.72,41.36,50.74,67.18,39.44,67.18,39.44,6.33.86,10.35-3.15,25.84-31.31,25.84-31.31,7-9,18.68-3.72,62,30.42,62,30.42,5.89,2.16,5.89,11.06-3.61,30.69-11,38-28.91,30.07-61.26,30.07-109.43-26.33-150.49-67.39S347,495.6,338.43,457.7,331,402.65,341.58,387.05Z" transform="translate(1482.3 804.7)"/></svg>